<?xml version="1.0" standalone="no"?>
<!DOCTYPE svg PUBLIC "-//W3C//DTD SVG 20010904//EN"
 "http://www.w3.org/TR/2001/REC-SVG-20010904/DTD/svg10.dtd">
<svg version="1.0" xmlns="http://www.w3.org/2000/svg"
 width="500.000000pt" height="500.000000pt" viewBox="0 0 500.000000 500.000000"
 preserveAspectRatio="xMidYMid meet">

<g transform="translate(0.000000,500.000000) scale(0.100000,-0.100000)"
fill="#000000" stroke="none">
<path d="M3893 4892 c-96 -201 -250 -409 -495 -673 -79 -84 -93 -104 -115
-170 -19 -54 -25 -92 -24 -142 1 -38 -3 -84 -9 -103 -10 -31 -10 -37 6 -48 15
-11 16 -24 11 -83 -3 -39 -17 -98 -31 -133 -26 -63 -26 -63 -6 -77 14 -10 20
-26 20 -53 0 -49 -31 -150 -59 -188 -27 -39 -27 -52 4 -52 24 0 25 -3 25 -59
0 -47 -7 -72 -34 -125 l-33 -67 23 -16 c13 -8 24 -25 24 -37 0 -38 -50 -124
-93 -162 -40 -34 -41 -36 -23 -50 11 -8 23 -14 26 -14 4 0 12 -11 19 -24 11
-21 10 -28 -14 -64 -15 -22 -44 -53 -66 -68 -42 -29 -47 -39 -25 -47 8 -3 22
-17 32 -31 16 -25 15 -27 -10 -61 -15 -19 -46 -45 -69 -56 -54 -27 -52 -24
-33 -51 34 -48 9 -91 -70 -120 -39 -14 -40 -18 -18 -59 8 -17 14 -42 12 -57
-3 -25 -7 -27 -52 -30 -27 -2 -54 2 -59 7 -8 8 -2 11 20 11 44 0 63 9 63 30 0
23 -47 80 -66 80 -31 0 -12 19 25 25 41 7 131 58 131 74 0 14 -59 61 -78 61
-27 0 -1 16 54 34 29 9 69 32 90 50 34 30 37 35 25 50 -22 26 -66 46 -103 47
-33 0 -33 1 -8 11 89 39 118 56 152 90 21 21 38 44 38 51 0 7 -17 23 -38 35
-31 17 -44 19 -77 12 -69 -16 -72 -10 -10 23 91 49 120 72 154 124 37 55 39
81 9 92 -17 6 -36 0 -80 -26 -59 -35 -138 -67 -145 -59 -3 2 31 26 74 53 109
67 165 125 187 195 22 71 19 92 -16 96 -20 2 -42 -9 -82 -42 -67 -54 -162
-116 -178 -116 -14 0 -4 9 114 107 47 40 103 93 123 117 44 54 75 131 75 186
0 52 -21 53 -76 2 -147 -134 -263 -227 -272 -217 -3 3 39 47 94 97 211 196
261 265 271 380 3 32 2 58 -2 58 -5 0 -70 -60 -144 -134 -138 -137 -231 -219
-239 -211 -3 2 62 73 143 157 156 161 214 238 234 311 23 81 10 89 -37 24 -58
-78 -110 -136 -283 -315 -137 -142 -147 -155 -138 -178 12 -33 12 -106 -1
-139 -8 -20 -6 -32 5 -48 19 -27 19 -61 1 -120 l-14 -47 34 0 c34 0 34 0 34
-47 -1 -27 -7 -59 -15 -73 -20 -34 -18 -48 5 -55 14 -4 20 -15 20 -33 0 -30
-32 -106 -49 -116 -17 -11 -13 -26 7 -26 24 0 42 -19 42 -44 0 -22 -35 -86
-53 -98 -6 -4 -4 -12 6 -23 29 -28 21 -80 -17 -123 -25 -27 -32 -42 -25 -52
16 -27 9 -68 -16 -98 -21 -25 -24 -34 -15 -57 19 -51 -31 -99 -97 -93 -30 3
-34 5 -18 12 73 28 85 36 85 59 0 28 -17 47 -45 47 -16 1 -15 4 10 17 44 23
75 54 75 75 0 10 -14 27 -31 37 l-31 19 36 17 c91 43 105 146 17 129 -41 -9
-39 -2 9 30 39 26 80 78 80 103 0 21 -63 26 -105 9 -21 -9 -40 -14 -42 -12 -2
2 18 21 45 42 55 43 87 85 97 127 6 24 4 27 -16 27 -13 0 -46 -16 -73 -35 -74
-53 -78 -42 -9 28 61 60 93 115 93 157 0 11 -2 20 -5 20 -20 0 -79 -34 -114
-65 -53 -48 -62 -40 -16 15 67 81 103 160 90 201 -9 26 -24 23 -64 -11 -19
-16 -37 -28 -39 -26 -2 3 14 28 36 58 23 29 45 66 51 81 13 34 15 117 2 117
-27 0 -111 -169 -142 -286 -20 -70 -22 -100 -19 -259 7 -419 5 -475 -19 -538
-13 -32 -25 -57 -27 -55 -2 2 3 32 12 67 8 35 15 92 17 125 2 70 -12 296 -19
308 -7 11 -6 231 1 283 17 126 79 273 160 380 25 33 118 134 208 225 216 219
311 341 342 439 11 35 -2 26 -116 -80 -94 -86 -137 -125 -328 -288 -227 -194
-294 -266 -355 -387 -73 -144 -81 -244 -45 -584 21 -207 22 -223 7 -314 -32
-196 -131 -331 -222 -305 -67 20 -218 41 -249 35 -31 -6 -65 -43 -83 -88 -5
-15 0 -18 37 -18 143 -1 426 -103 611 -222 109 -70 107 -66 49 -136 -28 -33
-55 -63 -60 -66 -5 -3 -53 22 -107 56 -205 128 -451 218 -599 218 -42 0 -45
-2 -79 -57 -41 -65 -46 -109 -16 -144 l19 -24 -6 36 c-4 30 -1 39 18 53 31 21
69 20 159 -4 149 -41 248 -87 388 -179 107 -70 260 -213 317 -296 l38 -56 -29
-30 c-52 -55 -224 -189 -243 -189 -10 0 -31 21 -52 52 -122 190 -380 361 -634
422 -117 27 -130 27 -172 -3 -21 -15 -44 -35 -51 -44 -12 -14 -9 -17 25 -22
59 -9 218 -62 292 -97 53 -25 191 -106 210 -124 7 -6 -31 -43 -81 -80 l-47
-35 -58 39 c-129 88 -306 159 -440 177 -51 7 -54 6 -113 -40 -83 -64 -94 -83
-92 -160 1 -35 7 -76 12 -91 14 -36 6 -44 -108 -106 -53 -29 -118 -74 -144
-99 -41 -38 -48 -51 -48 -83 0 -48 27 -152 48 -188 20 -34 105 -72 196 -88
127 -21 355 -12 491 19 213 49 327 85 485 154 183 79 255 119 430 236 89 61
283 211 344 266 36 34 315 254 333 263 12 7 40 9 66 6 43 -6 48 -4 223 111
278 183 380 265 399 324 7 22 -26 115 -88 251 -29 63 -41 79 -78 100 -39 22
-55 25 -144 24 -122 -1 -210 -24 -219 -56 -3 -12 -4 -23 -3 -24 1 -1 43 7 92
18 159 33 256 11 263 -62 3 -29 -4 -40 -55 -89 -61 -58 -322 -231 -350 -231
-9 0 -49 31 -89 70 -67 64 -76 69 -99 60 -47 -18 -132 -10 -119 11 3 5 9 7 14
4 16 -10 136 35 160 60 30 32 20 41 -47 49 -73 8 -153 26 -153 34 0 4 53 7
118 7 100 1 123 4 158 22 38 20 74 60 74 81 0 5 -60 9 -134 9 -75 1 -143 6
-153 12 -16 9 -14 11 12 11 17 1 44 3 60 5 17 2 59 7 95 10 119 13 219 66 246
131 8 18 14 36 14 40 0 3 -74 3 -165 -1 -121 -6 -165 -5 -165 4 0 6 8 12 18
12 9 1 26 3 37 4 261 38 336 65 419 152 34 36 64 98 53 109 -3 3 -34 -2 -69
-11 -67 -17 -238 -49 -325 -60 -94 -12 -58 12 60 40 208 49 300 88 384 160 40
34 102 139 90 151 -3 4 -61 -12 -129 -34 -187 -61 -318 -99 -368 -107 -56 -9
-44 5 25 30 146 52 310 118 352 141 49 27 144 103 175 139 49 58 108 215 80
215 -5 0 -29 -10 -53 -23 -103 -55 -309 -158 -369 -185 -89 -40 -212 -84 -206
-73 4 5 82 50 174 100 92 51 176 97 187 104 248 152 366 305 391 505 8 64 -2
66 -66 17 -25 -19 -65 -49 -90 -67 -25 -17 -47 -35 -50 -38 -3 -4 -81 -61
-174 -127 -162 -116 -354 -238 -362 -231 -2 2 61 53 139 113 408 313 531 434
607 597 36 76 55 218 30 218 -7 0 -59 -44 -114 -98 -153 -149 -314 -299 -379
-351 -18 -14 -46 -38 -62 -53 -43 -39 -174 -137 -199 -149 -11 -6 26 34 84 88
229 214 376 362 448 452 127 159 203 335 201 468 -1 101 -8 104 -64 23 -75
-109 -247 -323 -344 -430 -118 -130 -301 -310 -314 -310 -6 0 -2 10 9 23 393
446 497 585 568 753 28 67 61 193 70 264 8 57 -3 140 -18 140 -6 -1 -34 -49
-63 -108z m-2530 -3762 c185 -57 350 -168 434 -291 35 -51 58 -111 51 -130 -5
-14 -113 -53 -234 -85 -264 -71 -578 -70 -663 2 -77 65 -33 124 184 243 33 19
61 34 62 35 1 1 -4 29 -12 61 -40 169 11 216 178 165z"/>
<path d="M1228 1099 c-13 -7 -18 -23 -18 -52 0 -46 17 -117 28 -117 17 0 230
116 224 122 -13 13 -161 58 -189 58 -15 0 -36 -5 -45 -11z"/>
<path d="M1071 751 c-25 -17 -48 -36 -52 -44 -10 -17 16 -57 36 -57 12 0 12 5
3 26 -11 24 -9 29 30 65 49 46 43 50 -17 10z"/>
<path d="M2765 4225 c-86 -256 -204 -473 -359 -658 -35 -43 -119 -136 -185
-206 -148 -157 -188 -207 -234 -291 -85 -154 -86 -256 -6 -497 50 -151 53
-163 53 -268 1 -60 -1 -119 -4 -130 -4 -17 6 -21 97 -41 l102 -21 32 31 c48
47 96 158 110 259 13 85 7 197 -21 392 -5 33 -9 112 -9 176 -2 291 97 452 472
763 l107 89 0 72 c0 45 -5 78 -14 90 -13 18 -17 13 -54 -60 -39 -79 -110 -185
-124 -185 -4 0 11 40 32 88 81 183 92 318 30 394 -18 22 -19 22 -25 3z"/>
<path d="M3422 2010 c-35 -9 -69 -23 -75 -30 -9 -10 -9 -12 3 -8 113 38 189
33 200 -12 l6 -25 12 22 c38 69 -20 90 -146 53z"/>
<path d="M1747 1693 c-15 -15 -5 -62 20 -94 15 -19 47 -52 72 -73 126 -107
144 -126 132 -140 -9 -10 -6 -17 15 -30 14 -10 31 -15 38 -13 7 3 63 38 125
78 130 84 130 79 3 148 -159 87 -376 154 -405 124z"/>
</g>
</svg>
